<svg xmlns="http://www.w3.org/2000/svg" viewBox="0 0 64 64">
  <defs>
    <linearGradient id="g" x1="0" y1="0" x2="0" y2="1">
      <stop offset="0" stop-color="#2cc157"/>
      <stop offset="1" stop-color="#1a8538"/>
    </linearGradient>
  </defs>
  <rect width="64" height="64" rx="14" fill="url(#g)"/>
  <!-- ticket with side notches -->
  <path fill="#fff" d="M10 20a3 3 0 0 1 3-3h38a3 3 0 0 1 3 3v7a5 5 0 0 0 0 10v7a3 3 0 0 1-3 3H13a3 3 0 0 1-3-3v-7a5 5 0 0 0 0-10v-7Z"/>
  <!-- perforation -->
  <path stroke="#219f45" stroke-width="3" stroke-linecap="round" stroke-dasharray="0.1 6" d="M42 22v20"/>
  <!-- orange alert dot -->
  <circle cx="51" cy="13" r="9" fill="#e98a1c" stroke="#fff" stroke-width="3"/>
</svg>
